<svg width="178" height="30" viewBox="0 0 178 30" fill="none" xmlns="http://www.w3.org/2000/svg">
  <mask id="mask0_1593_559" style="mask-type:luminance" maskUnits="userSpaceOnUse" x="0" y="0" width="23" height="31">
    <path d="M0 0H22.2532V30.0077H0V0Z" fill="white"/>
  </mask>
  <g mask="url(#mask0_1593_559)">
    <path
      d="M10.9691 0.0179651C4.90945 0.0311894 0 4.7247 0 10.5098C0 18.5648 7.4278 26.776 10.0709 29.4425C10.571 29.9487 11.4063 29.9547 11.9064 29.4522C14.4764 26.8614 21.6056 18.9976 21.9735 11.1374C22.2494 5.20799 17.1925 0.00594268 10.9691 0.0179651ZM10.9956 18.019C6.64798 18.019 3.12683 14.6587 3.12683 10.5098C3.12683 6.36213 6.64798 3.0019 10.9956 3.0019C15.3419 3.0019 18.863 6.36213 18.863 10.5098C18.8592 14.6551 15.3381 18.019 10.9956 18.019Z"
      fill="#2E8B58"/>
  </g>
  <path
    d="M11.729 12.2798C11.4922 12.3687 11.2453 12.412 10.992 12.412C10.7426 12.412 10.4919 12.3687 10.2551 12.2798L7.37515 11.1978C7.16098 11.6402 7.04004 12.1331 7.04004 12.6537V13.0432C7.04004 13.2151 7.14838 13.369 7.31594 13.4351L10.6166 14.677C10.8572 14.7648 11.1205 14.7648 11.3599 14.677L14.6618 13.4351C14.8294 13.369 14.9377 13.2151 14.9377 13.0432V12.6537C14.9377 12.1331 14.8155 11.6402 14.6026 11.1978L11.729 12.2798Z"
    fill="#2E8B58"/>
  <path
    d="M10.5511 6.67949L4.8303 8.83509C4.61614 8.91684 4.61614 9.20177 4.8303 9.28352L10.5511 11.4355C10.8345 11.5425 11.1495 11.5425 11.4329 11.4355L16.0186 9.71031V10.8019H15.9569C15.8712 10.8019 15.8019 10.8681 15.8019 10.9498V11.0941C15.8019 11.1698 15.8611 11.2287 15.9367 11.2383L15.6344 11.8214C15.5588 11.9693 15.6709 12.1448 15.8448 12.1448H16.7694C16.9433 12.1448 17.0554 11.9729 16.9798 11.8214L16.6762 11.2383C16.7518 11.2287 16.811 11.1698 16.811 11.0941V10.9498C16.811 10.8681 16.743 10.8019 16.6573 10.8019H16.5943V9.49031L17.1474 9.28352C17.3603 9.20177 17.3603 8.91684 17.1474 8.83509L11.4254 6.67949C11.1533 6.57249 10.837 6.57249 10.5511 6.67949Z"
    fill="#2E8B58"/>
  <path
    d="M35.9176 22.3963C34.3051 22.3963 32.9193 22.0669 31.7603 21.4057C30.6038 20.7456 29.7143 19.8235 29.0895 18.6405C28.4671 17.4551 28.1572 16.0858 28.1572 14.5337C28.1572 12.9792 28.4671 11.6075 29.0895 10.4173C29.7143 9.22467 30.6038 8.29535 31.7603 7.62811C32.9193 6.95847 34.3051 6.62305 35.9176 6.62305C37.835 6.62305 39.4073 7.07749 40.6343 7.98397C41.8601 8.89166 42.6248 10.166 42.9272 11.8071H39.7121C39.5131 10.9799 39.0898 10.3307 38.4423 9.85945C37.7972 9.38818 36.9406 9.15254 35.8723 9.15254C34.397 9.15254 33.2393 9.63223 32.4002 10.5904C31.5637 11.5498 31.1455 12.8638 31.1455 14.5337C31.1455 16.2048 31.5637 17.5153 32.4002 18.4674C33.2393 19.4172 34.397 19.8909 35.8723 19.8909C36.9406 19.8909 37.7972 19.6696 38.4423 19.2272C39.0898 18.7848 39.5131 18.1717 39.7121 17.3854H42.9272C42.6248 18.9567 41.8601 20.1842 40.6343 21.069C39.4073 21.9539 37.835 22.3963 35.9176 22.3963Z"
    fill="black"/>
  <path
    d="M49.3419 22.3959C48.3668 22.3959 47.5681 22.248 46.9432 21.9534C46.3209 21.6553 45.8573 21.2598 45.5524 20.7656C45.2501 20.2691 45.0989 19.7245 45.0989 19.1306C45.0989 18.1279 45.5083 17.3128 46.3284 16.6877C47.1511 16.0625 48.3844 15.7499 50.0272 15.7499H52.9046V15.4902C52.9046 14.7497 52.6829 14.2051 52.2394 13.8552C51.7985 13.5066 51.253 13.331 50.6017 13.331C50.0071 13.331 49.488 13.4657 49.0446 13.735C48.6036 14.0043 48.3303 14.401 48.2232 14.9228H45.371C45.4478 14.1413 45.725 13.4597 46.2025 12.879C46.6824 12.2959 47.3023 11.8487 48.0619 11.5373C48.8241 11.2235 49.677 11.066 50.6219 11.066C52.2344 11.066 53.5043 11.4532 54.4315 12.225C55.3612 12.9944 55.8274 14.0836 55.8274 15.4902V22.1362H53.338L53.0659 20.3953C52.7295 20.976 52.2609 21.4557 51.6599 21.8332C51.0577 22.2083 50.2855 22.3959 49.3419 22.3959ZM50.0071 20.2174C50.8436 20.2174 51.4936 19.9565 51.9572 19.4336C52.4209 18.9118 52.7144 18.265 52.8391 17.4956H50.3497C49.5737 17.4956 49.0169 17.6302 48.6818 17.8995C48.3454 18.1688 48.1778 18.4994 48.1778 18.8902C48.1778 19.3109 48.3454 19.6379 48.6818 19.8712C49.0169 20.102 49.4591 20.2174 50.0071 20.2174Z"
    fill="black"/>
  <path
    d="M58.6135 22.1362V11.3305H61.1936L61.4405 12.7876C61.8059 12.2659 62.2896 11.8487 62.8918 11.5373C63.4927 11.2235 64.1894 11.066 64.9831 11.066C66.733 11.066 67.9726 11.714 68.702 13.0088C69.1152 12.4125 69.667 11.9401 70.3599 11.5902C71.0516 11.2416 71.8087 11.066 72.6326 11.066C74.1066 11.066 75.2391 11.488 76.029 12.3308C76.8215 13.1748 77.2183 14.4082 77.2183 16.0337V22.1362H74.2955V16.2981C74.2955 15.3688 74.1091 14.6571 73.7362 14.163C73.3633 13.6701 72.7888 13.4224 72.0128 13.4224C71.2229 13.4224 70.5879 13.6989 70.108 14.2495C69.6267 14.8014 69.3874 15.5708 69.3874 16.5578V22.1362H66.4646V16.2981C66.4646 15.3688 66.2744 14.6571 65.8952 14.163C65.5147 13.6701 64.9289 13.4224 64.1365 13.4224C63.3605 13.4224 62.7318 13.6989 62.2518 14.2495C61.7706 14.8014 61.5312 15.5708 61.5312 16.5578V22.1362H58.6135Z"
    fill="black"/>
  <path
    d="M80.0083 26.9307V11.3305H82.6085L82.926 12.8742C83.2913 12.3969 83.7751 11.9773 84.3773 11.6143C84.9782 11.2488 85.7593 11.066 86.7205 11.066C87.7851 11.066 88.7362 11.3137 89.5727 11.8066C90.4092 12.3007 91.0706 12.9776 91.5582 13.836C92.0445 14.692 92.2889 15.6658 92.2889 16.755C92.2889 17.8454 92.0445 18.8156 91.5582 19.6644C91.0706 20.5144 90.4092 21.1828 89.5727 21.6697C88.7362 22.153 87.7851 22.3959 86.7205 22.3959C85.8664 22.3959 85.1193 22.2432 84.4781 21.939C83.8394 21.6348 83.3216 21.2069 82.926 20.655V26.9307H80.0083ZM86.1007 19.9577C87.0304 19.9577 87.8002 19.6596 88.4087 19.0633C89.0159 18.467 89.3208 17.6975 89.3208 16.755C89.3208 15.81 89.0159 15.0322 88.4087 14.4227C87.8002 13.8143 87.0304 13.509 86.1007 13.509C85.1559 13.509 84.3836 13.8107 83.7827 14.413C83.1805 15.0166 82.8807 15.7884 82.8807 16.7309C82.8807 17.6771 83.1805 18.4513 83.7827 19.0537C84.3836 19.6572 85.1559 19.9577 86.1007 19.9577Z"
    fill="black"/>
  <path
    d="M99.135 22.3959C97.7203 22.3959 96.628 21.9763 95.8595 21.136C95.0898 20.2932 94.7056 19.0573 94.7056 17.4283V11.3306H97.6082V17.1686C97.6082 18.0991 97.8047 18.8108 98.1977 19.3038C98.5933 19.7979 99.2182 20.0443 100.072 20.0443C100.879 20.0443 101.544 19.769 102.068 19.2172C102.594 18.6666 102.859 17.8971 102.859 16.9089V11.3306H105.782V22.1362H103.202L102.97 20.304C102.62 20.946 102.114 21.4557 101.453 21.8332C100.79 22.2083 100.018 22.3959 99.135 22.3959Z"
    fill="black"/>
  <path
    d="M113.45 22.3959C112.445 22.3959 111.562 22.2396 110.8 21.9294C110.04 21.6192 109.431 21.1876 108.975 20.6358C108.518 20.0816 108.245 19.442 108.154 18.717H111.102C111.193 19.1378 111.44 19.4961 111.843 19.7942C112.246 20.0924 112.766 20.2415 113.405 20.2415C114.046 20.2415 114.515 20.1188 114.811 19.8712C115.106 19.6247 115.254 19.341 115.254 19.02C115.254 18.5559 115.04 18.2397 114.614 18.0726C114.191 17.9067 113.598 17.7432 112.835 17.5821C112.348 17.4799 111.853 17.3561 111.349 17.2118C110.848 17.0676 110.388 16.8836 109.968 16.6588C109.551 16.4316 109.214 16.1395 108.955 15.7836C108.696 15.4277 108.567 14.9889 108.567 14.4659C108.567 13.5078 108.965 12.7011 109.762 12.0471C110.56 11.393 111.684 11.066 113.133 11.066C114.473 11.066 115.542 11.3642 116.338 11.9605C117.136 12.5568 117.614 13.3779 117.769 14.4227H115.002C114.837 13.6244 114.206 13.2252 113.108 13.2252C112.56 13.2252 112.138 13.3286 111.843 13.533C111.547 13.735 111.399 13.9887 111.399 14.2928C111.399 14.6138 111.619 14.8687 112.059 15.0574C112.499 15.2438 113.085 15.4169 113.818 15.5768C114.607 15.7535 115.332 15.9471 115.995 16.1587C116.66 16.3679 117.189 16.6781 117.582 17.0916C117.978 17.5052 118.177 18.0967 118.177 18.8661C118.193 19.537 118.011 20.1405 117.628 20.6791C117.247 21.2153 116.701 21.6348 115.985 21.939C115.269 22.2432 114.424 22.3959 113.45 22.3959Z"
    fill="black"/>
  <path d="M126.261 22.136V6.88208H136.582V9.12785H129.184V13.3982H135.166V15.6007H129.184V22.136H126.261Z"
        fill="black"/>
  <path
    d="M144.276 22.3959C143.137 22.3959 142.125 22.1626 141.242 21.6986C140.358 21.2345 139.665 20.5817 139.161 19.7413C138.66 18.8986 138.41 17.9236 138.41 16.8175C138.41 15.7018 138.657 14.7088 139.151 13.836C139.647 12.9644 140.333 12.2851 141.207 11.797C142.084 11.3101 143.114 11.066 144.301 11.066C145.412 11.066 146.394 11.2993 147.244 11.7633C148.097 12.2286 148.763 12.8646 149.244 13.6725C149.724 14.478 149.965 15.3736 149.965 16.3607C149.965 16.5218 149.96 16.6901 149.95 16.8656C149.942 17.0387 149.932 17.2203 149.92 17.409H141.308C141.371 18.253 141.681 18.9142 142.235 19.3951C142.789 19.8736 143.462 20.1116 144.256 20.1116C144.85 20.1116 145.349 19.9854 145.752 19.7317C146.155 19.4756 146.455 19.1438 146.654 18.7363H149.622C149.407 19.4191 149.053 20.0419 148.559 20.6021C148.065 21.16 147.456 21.6 146.73 21.9198C146.007 22.2372 145.189 22.3959 144.276 22.3959ZM144.301 13.331C143.585 13.331 142.953 13.5258 142.406 13.9129C141.858 14.2976 141.509 14.8819 141.358 15.6634H146.997C146.949 14.9516 146.674 14.3866 146.171 13.9658C145.669 13.5426 145.047 13.331 144.301 13.331Z"
    fill="black"/>
  <path
    d="M157.928 22.3959C156.789 22.3959 155.778 22.1626 154.895 21.6986C154.01 21.2345 153.317 20.5817 152.813 19.7413C152.312 18.8986 152.062 17.9236 152.062 16.8175C152.062 15.7018 152.309 14.7088 152.803 13.836C153.3 12.9644 153.985 12.2851 154.859 11.797C155.736 11.3101 156.767 11.066 157.953 11.066C159.064 11.066 160.046 11.2993 160.896 11.7633C161.749 12.2286 162.416 12.8646 162.897 13.6725C163.377 14.478 163.617 15.3736 163.617 16.3607C163.617 16.5218 163.612 16.6901 163.602 16.8656C163.595 17.0387 163.585 17.2203 163.572 17.409H154.96C155.023 18.253 155.333 18.9142 155.887 19.3951C156.442 19.8736 157.114 20.1116 157.908 20.1116C158.503 20.1116 159.001 19.9854 159.405 19.7317C159.808 19.4756 160.108 19.1438 160.307 18.7363H163.275C163.059 19.4191 162.705 20.0419 162.211 20.6021C161.718 21.16 161.108 21.6 160.382 21.9198C159.659 22.2372 158.841 22.3959 157.928 22.3959ZM157.953 13.331C157.238 13.331 156.605 13.5258 156.059 13.9129C155.511 14.2976 155.162 14.8819 155.01 15.6634H160.649C160.601 14.9516 160.327 14.3866 159.823 13.9658C159.321 13.5426 158.699 13.331 157.953 13.331Z"
    fill="black"/>
  <path
    d="M171.287 22.396C170.219 22.396 169.267 22.1483 168.43 21.6554C167.594 21.1625 166.931 20.4868 166.445 19.6308C165.957 18.7748 165.714 17.8022 165.714 16.7118C165.714 15.6226 165.957 14.6524 166.445 13.8024C166.931 12.9536 167.594 12.2852 168.43 11.7971C169.267 11.3102 170.219 11.0661 171.287 11.0661C172.137 11.0661 172.881 11.22 173.52 11.5278C174.161 11.8332 174.68 12.2612 175.077 12.8118V6.44958H178V22.1363H175.394L175.077 20.5878C174.71 21.0687 174.227 21.4907 173.626 21.8526C173.023 22.2144 172.245 22.396 171.287 22.396ZM171.902 19.9578C172.846 19.9578 173.618 19.6573 174.22 19.0538C174.821 18.4514 175.122 17.6772 175.122 16.7311C175.122 15.7885 174.821 15.0167 174.22 14.4132C173.618 13.8108 172.846 13.5091 171.902 13.5091C170.975 13.5091 170.205 13.8072 169.594 14.4035C168.986 14.9974 168.682 15.7669 168.682 16.7118C168.682 17.6544 168.986 18.4322 169.594 19.0441C170.205 19.6537 170.975 19.9578 171.902 19.9578Z"
    fill="black"/>
</svg>
