<svg xmlns="http://www.w3.org/2000/svg" width="26" height="26" viewBox="0 0 26 26" fill="none">
  <path fill-rule="evenodd" clip-rule="evenodd"
        d="M13.2694 2.71802C7.61155 2.71802 3.02588 7.30369 3.02588 12.9616C3.02588 17.4867 5.9601 21.3267 10.0312 22.6824C10.5437 22.7748 10.7286 22.4595 10.7286 22.1884C10.7286 21.945 10.7204 21.3 10.7173 20.4466C7.86728 21.0648 7.26545 19.0724 7.26545 19.0724C6.80123 17.8893 6.12853 17.574 6.12853 17.574C5.19907 16.9382 6.19939 16.9526 6.19939 16.9526C7.22847 17.0245 7.76766 18.0084 7.76766 18.0084C8.68172 19.5736 10.1668 19.1217 10.7481 18.8598C10.8416 18.1974 11.1086 17.7455 11.4003 17.4897C9.12642 17.232 6.7355 16.3528 6.7355 12.4265C6.7355 11.3101 7.13501 10.394 7.78718 9.67921C7.68345 9.41937 7.32912 8.37694 7.88885 6.96786C7.88885 6.96786 8.74847 6.69159 10.705 8.01645C11.5405 7.78914 12.4025 7.67311 13.2684 7.67137C14.1344 7.67277 14.9964 7.78881 15.8319 8.01645C17.7894 6.69056 18.648 6.96786 18.648 6.96786C19.2077 8.37694 18.8565 9.41937 18.7497 9.67921C19.407 10.394 19.8013 11.3091 19.8013 12.4265C19.8013 16.3631 17.4084 17.2279 15.1263 17.4815C15.4909 17.7979 15.8196 18.4223 15.8196 19.3774C15.8196 20.7475 15.8072 21.8526 15.8072 22.1884C15.8072 22.4626 15.99 22.781 16.5128 22.6803C20.5819 21.3226 23.513 17.4856 23.513 12.9616C23.513 7.30369 18.9273 2.71802 13.2694 2.71802Z"
        fill="#18181B"/>
</svg>