<svg xmlns="http://www.w3.org/2000/svg" width="26" height="26" viewBox="0 0 26 26" fill="none">
  <path
    d="M12.8364 8.24036C11.5769 8.24036 10.3689 8.74069 9.47834 9.6313C8.58774 10.5219 8.0874 11.7298 8.0874 12.9893C8.0874 14.2488 8.58774 15.4568 9.47834 16.3474C10.3689 17.238 11.5769 17.7383 12.8364 17.7383C14.0959 17.7383 15.3038 17.238 16.1944 16.3474C17.085 15.4568 17.5853 14.2488 17.5853 12.9893C17.5853 11.7298 17.085 10.5219 16.1944 9.6313C15.3038 8.74069 14.0959 8.24036 12.8364 8.24036ZM12.8364 16.0735C12.0181 16.0735 11.2334 15.7484 10.6548 15.1699C10.0762 14.5913 9.75119 13.8065 9.75119 12.9883C9.75119 12.1701 10.0762 11.3853 10.6548 10.8067C11.2334 10.2282 12.0181 9.90311 12.8364 9.90311C13.6546 9.90311 14.4393 10.2282 15.0179 10.8067C15.5965 11.3853 15.9216 12.1701 15.9216 12.9883C15.9216 13.8065 15.5965 14.5913 15.0179 15.1699C14.4393 15.7484 13.6546 16.0735 12.8364 16.0735Z"
    fill="#18181B"/>
  <path
    d="M17.7736 9.17277C18.3851 9.17277 18.8808 8.67708 18.8808 8.06563C18.8808 7.45418 18.3851 6.9585 17.7736 6.9585C17.1622 6.9585 16.6665 7.45418 16.6665 8.06563C16.6665 8.67708 17.1622 9.17277 17.7736 9.17277Z"
    fill="#18181B"/>
  <path
    d="M21.601 6.94007C21.3632 6.32609 20.9999 5.76852 20.5343 5.30305C20.0686 4.83757 19.5109 4.47445 18.8968 4.23693C18.1783 3.96719 17.4191 3.82134 16.6518 3.80558C15.6627 3.76245 15.3495 3.75012 12.8415 3.75012C10.3335 3.75012 10.012 3.75012 9.03122 3.80558C8.26443 3.82053 7.50583 3.96642 6.78819 4.23693C6.17396 4.47418 5.61611 4.8372 5.15043 5.30271C4.68474 5.76822 4.32151 6.32593 4.08403 6.94007C3.81423 7.65859 3.66871 8.41779 3.6537 9.18515C3.60954 10.1731 3.59619 10.4864 3.59619 12.9954C3.59619 15.5034 3.59619 15.8228 3.6537 16.8057C3.66911 17.5739 3.81392 18.3319 4.08403 19.0518C4.32217 19.6657 4.68576 20.2232 5.15156 20.6886C5.61736 21.1541 6.17512 21.5173 6.78922 21.7549C7.5055 22.0355 8.26441 22.1918 9.03327 22.2171C10.0223 22.2602 10.3355 22.2736 12.8435 22.2736C15.3515 22.2736 15.673 22.2736 16.6538 22.2171C17.4211 22.2015 18.1802 22.056 18.8989 21.7868C19.5128 21.5487 20.0703 21.1853 20.5359 20.7197C21.0015 20.2541 21.365 19.6965 21.6031 19.0826C21.8732 18.3637 22.018 17.6057 22.0334 16.8375C22.0775 15.8495 22.0909 15.5363 22.0909 13.0273C22.0909 10.5182 22.0909 10.1999 22.0334 9.21699C22.0214 8.43878 21.8751 7.66849 21.601 6.94007ZM20.3501 16.7297C20.3435 17.3216 20.2354 17.9079 20.0307 18.4633C19.8764 18.8627 19.6403 19.2254 19.3375 19.528C19.0347 19.8306 18.6719 20.0666 18.2724 20.2206C17.7232 20.4244 17.143 20.5324 16.5573 20.54C15.5816 20.5851 15.3064 20.5964 12.8045 20.5964C10.3006 20.5964 10.0449 20.5964 9.05073 20.54C8.46525 20.5328 7.88539 20.4247 7.33662 20.2206C6.93576 20.0675 6.57149 19.832 6.26738 19.5293C5.96326 19.2266 5.72608 18.8635 5.57116 18.4633C5.3693 17.9139 5.26132 17.3344 5.25176 16.7492C5.2076 15.7735 5.19733 15.4983 5.19733 12.9964C5.19733 10.4936 5.19733 10.2379 5.25176 9.24266C5.2584 8.65112 5.36643 8.06509 5.57116 7.51007C5.88441 6.69974 6.5263 6.06196 7.33662 5.7518C7.88566 5.54859 8.46535 5.44057 9.05073 5.43239C10.0274 5.38823 10.3017 5.37591 12.8045 5.37591C15.3074 5.37591 15.5641 5.37591 16.5573 5.43239C17.1431 5.43944 17.7233 5.54749 18.2724 5.7518C18.6718 5.90613 19.0346 6.14228 19.3374 6.44507C19.6402 6.74787 19.8763 7.11063 20.0307 7.51007C20.2325 8.05947 20.3405 8.63894 20.3501 9.22418C20.3942 10.2009 20.4055 10.4751 20.4055 12.978C20.4055 15.4798 20.4055 15.7489 20.3614 16.7307H20.3501V16.7297Z"
    fill="#18181B"/>
</svg>