<svg width="203" height="37" viewBox="0 0 203 37" fill="none" xmlns="http://www.w3.org/2000/svg">
<mask id="mask0_1528_20587" style="mask-type:luminance" maskUnits="userSpaceOnUse" x="0" y="0" width="26" height="37">
<path d="M0 0.399414H25.3786V37H0V0.399414Z" fill="white"/>
</mask>
<g mask="url(#mask0_1528_20587)">
<path d="M12.5097 0.421778C5.59898 0.437908 0 6.16262 0 13.2188C0 23.0435 8.47103 33.0588 11.4853 36.3112C12.0557 36.9285 13.0083 36.9359 13.5786 36.3229C16.5096 33.1629 24.6401 23.5714 25.0596 13.9842C25.3743 6.7521 19.6072 0.407114 12.5097 0.421778ZM12.5399 22.3777C7.58168 22.3777 3.56599 18.2792 3.56599 13.2188C3.56599 8.15981 7.58168 4.06131 12.5399 4.06131C17.4966 4.06131 21.5123 8.15981 21.5123 13.2188C21.508 18.2748 17.4923 22.3777 12.5399 22.3777Z" fill="#6DA27D"/>
</g>
<path d="M13.3761 15.3767C13.106 15.4853 12.8244 15.538 12.5356 15.538C12.2511 15.538 11.9652 15.4853 11.6951 15.3767L8.41074 14.057C8.16649 14.5966 8.02856 15.1978 8.02856 15.8328V16.3079C8.02856 16.5176 8.15212 16.7053 8.34321 16.7859L12.1075 18.3007C12.3819 18.4077 12.6822 18.4077 12.9551 18.3007L16.7208 16.7859C16.9119 16.7053 17.0355 16.5176 17.0355 16.3079V15.8328C17.0355 15.1978 16.8961 14.5966 16.6533 14.057L13.3761 15.3767Z" fill="#6DA27D"/>
<path d="M12.0326 8.54661L5.50838 11.1758C5.26413 11.2755 5.26413 11.6231 5.50838 11.7228L12.0326 14.3476C12.3559 14.4781 12.7151 14.4781 13.0383 14.3476L18.2681 12.2433V13.5748H18.1977C18.1 13.5748 18.021 13.6554 18.021 13.7552V13.9311C18.021 14.0235 18.0885 14.0954 18.1747 14.1071L17.8299 14.8183C17.7437 14.9986 17.8715 15.2127 18.0698 15.2127H19.1244C19.3226 15.2127 19.4505 15.003 19.3643 14.8183L19.0181 14.1071C19.1043 14.0954 19.1718 14.0235 19.1718 13.9311V13.7552C19.1718 13.6554 19.0942 13.5748 18.9965 13.5748H18.9247V11.975L19.5554 11.7228C19.7982 11.6231 19.7982 11.2755 19.5554 11.1758L13.0297 8.54661C12.7194 8.4161 12.3588 8.4161 12.0326 8.54661Z" fill="#6DA27D"/>
<path d="M40.9604 27.7158C39.1214 27.7158 37.541 27.314 36.2192 26.5075C34.9003 25.7025 33.8859 24.5778 33.1733 23.1349C32.4635 21.689 32.1101 20.0188 32.1101 18.1258C32.1101 16.2297 32.4635 14.5566 33.1733 13.1049C33.8859 11.6503 34.9003 10.5168 36.2192 9.70294C37.541 8.88617 39.1214 8.47705 40.9604 8.47705C43.1472 8.47705 44.9402 9.03134 46.3396 10.137C47.7375 11.2441 48.6096 12.7984 48.9545 14.8H45.2879C45.0609 13.7912 44.5781 12.9993 43.8397 12.4245C43.1041 11.8497 42.1271 11.5623 40.9087 11.5623C39.2263 11.5623 37.9059 12.1474 36.9491 13.3161C35.9951 14.4862 35.5181 16.089 35.5181 18.1258C35.5181 20.164 35.9951 21.7624 36.9491 22.9237C37.9059 24.0822 39.2263 24.6599 40.9087 24.6599C42.1271 24.6599 43.1041 24.3901 43.8397 23.8505C44.5781 23.3108 45.0609 22.563 45.2879 21.604H48.9545C48.6096 23.5205 47.7375 25.0177 46.3396 26.0969C44.9402 27.1762 43.1472 27.7158 40.9604 27.7158Z" fill="black"/>
<path d="M56.2713 27.716C55.1593 27.716 54.2484 27.5357 53.5358 27.1764C52.826 26.8128 52.2973 26.3303 51.9496 25.7276C51.6048 25.122 51.4324 24.4578 51.4324 23.7334C51.4324 22.5104 51.8993 21.5162 52.8346 20.7537C53.7728 19.9912 55.1794 19.6099 57.0529 19.6099H60.3344V19.2932C60.3344 18.3899 60.0816 17.7257 59.5758 17.299C59.073 16.8737 58.4509 16.6596 57.7081 16.6596C57.0299 16.6596 56.438 16.8238 55.9322 17.1523C55.4294 17.4808 55.1176 17.9647 54.9955 18.6011H51.7427C51.8304 17.6479 52.1464 16.8165 52.691 16.1083C53.2384 15.3971 53.9452 14.8516 54.8116 14.4718C55.6808 14.0891 56.6535 13.897 57.731 13.897C59.5701 13.897 61.0183 14.3691 62.0758 15.3106C63.1361 16.249 63.6677 17.5776 63.6677 19.2932V27.3993H60.8287L60.5183 25.276C60.1347 25.9843 59.6002 26.5693 58.9149 27.0298C58.2282 27.4873 57.3474 27.716 56.2713 27.716ZM57.0299 25.059C57.9839 25.059 58.7253 24.7408 59.254 24.1029C59.7827 23.4665 60.1175 22.6776 60.2597 21.7391H57.4207C56.5357 21.7391 55.9006 21.9034 55.5185 22.2318C55.1349 22.5603 54.9438 22.9635 54.9438 23.4401C54.9438 23.9533 55.1349 24.3522 55.5185 24.6367C55.9006 24.9182 56.4049 25.059 57.0299 25.059Z" fill="black"/>
<path d="M66.8469 27.3993V14.2196H69.7894L70.071 15.9968C70.4876 15.3604 71.0393 14.8516 71.7261 14.4718C72.4114 14.0891 73.2059 13.897 74.1111 13.897C76.1067 13.897 77.5205 14.6873 78.3523 16.2666C78.8236 15.5393 79.4529 14.963 80.2431 14.5363C81.0319 14.1111 81.8954 13.897 82.835 13.897C84.516 13.897 85.8076 14.4117 86.7084 15.4396C87.6121 16.469 88.0647 17.9735 88.0647 19.956V27.3993H84.7315V20.2786C84.7315 19.1451 84.5188 18.277 84.0936 17.6743C83.6683 17.0731 83.0131 16.7711 82.1281 16.7711C81.2273 16.7711 80.5031 17.1083 79.9558 17.7799C79.4069 18.453 79.1339 19.3915 79.1339 20.5953V27.3993H75.8007V20.2786C75.8007 19.1451 75.5837 18.277 75.1513 17.6743C74.7174 17.0731 74.0493 16.7711 73.1456 16.7711C72.2606 16.7711 71.5436 17.1083 70.9962 17.7799C70.4474 18.453 70.1744 19.3915 70.1744 20.5953V27.3993H66.8469Z" fill="black"/>
<path d="M91.2449 33.2472V14.2196H94.2103L94.5724 16.1024C94.989 15.5202 95.5407 15.0085 96.2275 14.5656C96.9128 14.1199 97.8036 13.897 98.8998 13.897C100.114 13.897 101.199 14.199 102.153 14.8003C103.107 15.4029 103.861 16.2285 104.417 17.2755C104.971 18.3195 105.25 19.5073 105.25 20.8358C105.25 22.1658 104.971 23.3492 104.417 24.3845C103.861 25.4212 103.107 26.2365 102.153 26.8304C101.199 27.4198 100.114 27.716 98.8998 27.716C97.9257 27.716 97.0737 27.5298 96.3424 27.1588C95.614 26.7878 95.0235 26.2658 94.5724 25.5927V33.2472H91.2449ZM98.193 24.7422C99.2533 24.7422 100.131 24.3786 100.825 23.6513C101.518 22.9239 101.865 21.9855 101.865 20.8358C101.865 19.6833 101.518 18.7345 100.825 17.9911C100.131 17.2491 99.2533 16.8766 98.193 16.8766C97.1154 16.8766 96.2347 17.2447 95.5493 17.9793C94.8626 18.7155 94.5206 19.6569 94.5206 20.8065C94.5206 21.9605 94.8626 22.9049 95.5493 23.6395C96.2347 24.3757 97.1154 24.7422 98.193 24.7422Z" fill="black"/>
<path d="M113.061 27.7158C111.447 27.7158 110.202 27.2041 109.325 26.1791C108.447 25.1511 108.009 23.6437 108.009 21.6568V14.2194H111.319V21.3401C111.319 22.475 111.543 23.3431 111.992 23.9443C112.443 24.547 113.155 24.8476 114.13 24.8476C115.049 24.8476 115.808 24.5118 116.405 23.8387C117.006 23.1671 117.308 22.2287 117.308 21.0233V14.2194H120.641V27.3991H117.698L117.434 25.1643C117.035 25.9474 116.459 26.5691 115.704 27.0296C114.948 27.4871 114.068 27.7158 113.061 27.7158Z" fill="black"/>
<path d="M129.386 27.716C128.239 27.716 127.232 27.5254 126.363 27.1471C125.497 26.7688 124.803 26.2423 124.283 25.5693C123.761 24.8933 123.449 24.1132 123.346 23.2289H126.708C126.811 23.7422 127.093 24.1792 127.553 24.5428C128.012 24.9065 128.606 25.0883 129.334 25.0883C130.066 25.0883 130.6 24.9387 130.938 24.6367C131.274 24.3361 131.443 23.99 131.443 23.5985C131.443 23.0325 131.199 22.6468 130.714 22.443C130.231 22.2406 129.554 22.0412 128.685 21.8447C128.129 21.7201 127.564 21.569 126.99 21.3931C126.418 21.2171 125.893 20.9927 125.415 20.7185C124.939 20.4414 124.554 20.0851 124.26 19.651C123.964 19.217 123.817 18.6817 123.817 18.0439C123.817 16.8752 124.271 15.8912 125.179 15.0935C126.09 14.2958 127.372 13.897 129.024 13.897C130.553 13.897 131.771 14.2606 132.679 14.988C133.59 15.7153 134.134 16.7168 134.311 17.9911H131.156C130.968 17.0174 130.248 16.5306 128.995 16.5306C128.37 16.5306 127.889 16.6567 127.553 16.906C127.215 17.1523 127.047 17.4617 127.047 17.8327C127.047 18.2242 127.297 18.5351 127.8 18.7653C128.301 18.9926 128.969 19.2038 129.806 19.3988C130.705 19.6143 131.532 19.8504 132.288 20.1085C133.047 20.3637 133.65 20.742 134.099 21.2464C134.55 21.7508 134.777 22.4723 134.777 23.4108C134.795 24.229 134.587 24.9651 134.15 25.6221C133.716 26.2761 133.093 26.7878 132.277 27.1588C131.461 27.5298 130.497 27.716 129.386 27.716Z" fill="black"/>
<path d="M143.995 27.3991V8.79382H155.764V11.533H147.328V16.7415H154.15V19.4279H147.328V27.3991H143.995Z" fill="black"/>
<path d="M164.537 27.716C163.238 27.716 162.084 27.4316 161.077 26.8655C160.069 26.2995 159.278 25.5033 158.704 24.4783C158.132 23.4504 157.847 22.2611 157.847 20.9121C157.847 19.5513 158.129 18.3401 158.692 17.2755C159.258 16.2124 160.04 15.3839 161.037 14.7885C162.037 14.1946 163.212 13.897 164.566 13.897C165.833 13.897 166.952 14.1814 167.922 14.7475C168.895 15.315 169.655 16.0907 170.203 17.0761C170.751 18.0585 171.025 19.151 171.025 20.3549C171.025 20.5514 171.019 20.7567 171.008 20.9707C170.999 21.1819 170.988 21.4033 170.973 21.6335H161.152C161.224 22.6629 161.577 23.4694 162.209 24.056C162.842 24.6396 163.609 24.9299 164.514 24.9299C165.192 24.9299 165.761 24.776 166.221 24.4666C166.68 24.1542 167.022 23.7495 167.249 23.2524H170.634C170.389 24.0853 169.985 24.8449 169.422 25.5282C168.859 26.2086 168.163 26.7453 167.336 27.1354C166.511 27.5225 165.579 27.716 164.537 27.716ZM164.566 16.6596C163.75 16.6596 163.028 16.8972 162.405 17.3693C161.78 17.8386 161.382 18.5512 161.209 19.5044H167.64C167.586 18.6363 167.272 17.9471 166.698 17.4339C166.126 16.9177 165.416 16.6596 164.566 16.6596Z" fill="black"/>
<path d="M180.107 27.716C178.809 27.716 177.655 27.4316 176.648 26.8655C175.639 26.2995 174.849 25.5033 174.274 24.4783C173.702 23.4504 173.418 22.2611 173.418 20.9121C173.418 19.5513 173.7 18.3401 174.263 17.2755C174.829 16.2124 175.61 15.3839 176.608 14.7885C177.608 14.1946 178.783 13.897 180.136 13.897C181.403 13.897 182.523 14.1814 183.492 14.7475C184.465 15.315 185.225 16.0907 185.774 17.0761C186.321 18.0585 186.596 19.151 186.596 20.3549C186.596 20.5514 186.59 20.7567 186.579 20.9707C186.57 21.1819 186.558 21.4033 186.544 21.6335H176.722C176.794 22.6629 177.148 23.4694 177.78 24.056C178.412 24.6396 179.179 24.9299 180.084 24.9299C180.763 24.9299 181.332 24.776 181.791 24.4666C182.251 24.1542 182.593 23.7495 182.82 23.2524H186.205C185.959 24.0853 185.556 24.8449 184.992 25.5282C184.429 26.2086 183.734 26.7453 182.906 27.1354C182.082 27.5225 181.149 27.716 180.107 27.716ZM180.136 16.6596C179.32 16.6596 178.599 16.8972 177.975 17.3693C177.35 17.8386 176.952 18.5512 176.78 19.5044H183.211C183.156 18.6363 182.843 17.9471 182.268 17.4339C181.696 16.9177 180.987 16.6596 180.136 16.6596Z" fill="black"/>
<path d="M195.345 27.716C194.127 27.716 193.041 27.414 192.087 26.8128C191.133 26.2115 190.377 25.3874 189.822 24.3434C189.266 23.2993 188.989 22.113 188.989 20.783C188.989 19.4545 189.266 18.2712 189.822 17.2344C190.377 16.1992 191.133 15.3839 192.087 14.7885C193.041 14.1946 194.127 13.897 195.345 13.897C196.314 13.897 197.163 14.0847 197.891 14.4601C198.622 14.8325 199.214 15.3545 199.667 16.0261V8.26611H203V27.3993H200.029L199.667 25.5106C199.249 26.0972 198.697 26.6119 198.012 27.0532C197.325 27.4946 196.437 27.716 195.345 27.716ZM196.046 24.7422C197.122 24.7422 198.003 24.3757 198.69 23.6395C199.375 22.9049 199.719 21.9605 199.719 20.8065C199.719 19.6569 199.375 18.7155 198.69 17.9793C198.003 17.2447 197.122 16.8766 196.046 16.8766C194.989 16.8766 194.111 17.2403 193.414 17.9676C192.72 18.692 192.374 19.6305 192.374 20.783C192.374 21.9327 192.72 22.8814 193.414 23.6278C194.111 24.3713 194.989 24.7422 196.046 24.7422Z" fill="black"/>
</svg>
