<svg width="20" height="20" viewBox="0 0 20 20" fill="none" xmlns="http://www.w3.org/2000/svg">
<path fill-rule="evenodd" clip-rule="evenodd" d="M8.33333 2.5C5.11167 2.5 2.5 5.11167 2.5 8.33333C2.5 11.555 5.11167 14.1667 8.33333 14.1667C9.64361 14.1667 10.853 13.7347 11.8268 13.0053L15.2441 16.4227C15.5696 16.7481 16.0972 16.7481 16.4227 16.4227C16.7481 16.0972 16.7481 15.5696 16.4227 15.2441L13.0053 11.8268C13.7347 10.853 14.1667 9.64361 14.1667 8.33333C14.1667 5.11167 11.555 2.5 8.33333 2.5ZM4.16667 8.33333C4.16667 6.03215 6.03215 4.16667 8.33333 4.16667C10.6345 4.16667 12.5 6.03215 12.5 8.33333C12.5 10.6345 10.6345 12.5 8.33333 12.5C6.03215 12.5 4.16667 10.6345 4.16667 8.33333Z" fill="#191D23"/>
</svg>
